# xmcd CD database file
#
# Track frame offsets:
#	150
#	13422
#	27930
#	39727
#	53982
#	67565
#	78677
#	92805
#	109247
#	123100
#	139162
#	156402
#	173010
#	188070
#	203252
#	216625
#	229277
#	245025
#	259387
#	270080
#	285635
#	299705
#	314105
#
# Disc length: 4401 seconds
#
# Revision: 0
# Processed by: cddbd v1.5.1PL0 Copyright (c) Steve Scherf et al.
# Submitted via: CDex 1.51
#
DISCID=61112f17
DTITLE=Vivian Ellis - Spread a Little Happiness [Conifer]
DYEAR=1900
DGENRE=Jazz
TTITLE0=Little Boy Blues [Clowns in Clover]
TTITLE1=Spread a Little Happiness (Mr. Cinders)
TTITLE2=Ev'ry Little Moment (Mr. Cinders)
TTITLE3=On the Amazon (Mr. Cinders)
TTITLE4=I Don't Know How [A Yankee at the Court of King Arthur]
TTITLE5=My Heart Is Saying [The House That Jack Built]
TTITLE6=Wind in the Willows [Cochran's 1930 Revue]
TTITLE7=Follow a Star (Follow a Star)
TTITLE8=I Can Never Think of the Words (Follow a Star)
TTITLE9=If Your Kisses Can't Hold the Man You Love (Follow a Star)
TTITLE10=The First Week-End in June (Follow a Star)
TTITLE11=Don't Wear Your Heart on Your Sleeve (Follow a Star)
TTITLE12=Let's Be Sentimental [Little Tommy Tucker]
TTITLE13=Within My Heart Song of the Drum
TTITLE14=Song of the Hillmens Song of the Drum
TTITLE15=Put That Down in Writting [Out of the Bottle]
TTITLE16=The Flies Crawled up the Window (Jack's the Boy)
TTITLE17=I Want to Cling to Ivy (Jack's the Boy)
TTITLE18=Sweep (Falling for You)
TTITLE19=You Don't Understand (Falling for You)
TTITLE20=Mrs. Bartholomew (Falling for You)
TTITLE21=Kiss Me Dear [Streamline]
TTITLE22=Be Yourself (Impersonations) [Streamline]
EXTD=
EXTT0=
EXTT1=
EXTT2=
EXTT3=
EXTT4=
EXTT5=
EXTT6=
EXTT7=
EXTT8=
EXTT9=
EXTT10=
EXTT11=
EXTT12=
EXTT13=
EXTT14=
EXTT15=
EXTT16=
EXTT17=
EXTT18=
EXTT19=
EXTT20=
EXTT21=
EXTT22=
PLAYORDER=
